<svg width="1457" height="1212" viewBox="0 0 1457 1212" fill="none" xmlns="http://www.w3.org/2000/svg">
<path d="M39.01 1060H188.47C296.1 1060 369.89 995.14 369.89 895.5C369.89 795.86 296.1 731 188.47 731H39.01V1060ZM115.15 997.49V793.51H184.71C250.04 793.51 292.81 832.52 292.81 895.5C292.81 958.48 250.04 997.49 184.71 997.49H115.15ZM668.531 1060H748.431L601.321 731H526.121L379.481 1060H457.501L486.641 989.5H639.391L668.531 1060ZM511.081 931.69L563.251 805.73L615.421 931.69H511.081ZM1073.96 1060L1000.17 954.25C1042.94 935.92 1067.85 899.73 1067.85 850.38C1067.85 776.59 1012.86 731 924.975 731H782.565V1060H858.705V968.35H924.975H928.735L992.185 1060H1073.96ZM990.775 850.38C990.775 886.1 967.275 907.72 920.745 907.72H858.705V793.04H920.745C967.275 793.04 990.775 814.19 990.775 850.38ZM1373.99 1060H1453.89L1306.78 731H1231.58L1084.94 1060H1162.96L1192.1 989.5H1344.85L1373.99 1060ZM1216.54 931.69L1268.71 805.73L1320.88 931.69H1216.54Z" fill="#E60004"/>
<path d="M54.1914 1144.53H59.6719C68.237 1144.53 74.8555 1146.26 79.5273 1149.74C84.1992 1153.21 86.5352 1158.12 86.5352 1164.47C86.5352 1178.16 77.4909 1185 59.4023 1185H40.2656V1119.32H81.7734V1130.82H54.1914V1144.53ZM54.1914 1173.59H58.8633C63.5651 1173.59 67.0091 1172.84 69.1953 1171.34C71.3815 1169.82 72.4746 1167.53 72.4746 1164.47C72.4746 1161.45 71.3665 1159.27 69.1504 1157.96C66.9342 1156.61 63.1309 1155.94 57.7402 1155.94H54.1914V1173.59ZM150.078 1185H136.197V1130.91H120.115L119.396 1136.93C117.54 1152.24 115.893 1162.99 114.455 1169.19C113.047 1175.36 110.981 1179.7 108.256 1182.21C105.531 1184.73 101.847 1185.96 97.205 1185.9C94.6894 1185.9 92.4732 1185.57 90.5566 1184.91V1173.5C92.2935 1174.1 93.9257 1174.4 95.453 1174.4C97.0403 1174.4 98.2981 1173.68 99.2265 1172.24C100.155 1170.77 101.023 1168.08 101.832 1164.16C102.67 1160.2 103.764 1153.75 105.111 1144.79C106.489 1135.81 107.657 1127.32 108.615 1119.32H150.078V1185ZM205.939 1185L201.178 1169.37H177.234L172.473 1185H157.469L180.648 1119.05H197.674L220.943 1185H205.939ZM197.853 1157.69C193.451 1143.52 190.965 1135.51 190.396 1133.65C189.857 1131.8 189.468 1130.33 189.228 1129.25C188.24 1133.09 185.41 1142.56 180.738 1157.69H197.853ZM269.842 1119.32V1130.82H242.26V1185H228.334V1119.32H269.842ZM338.685 1152.07C338.685 1162.94 335.99 1171.3 330.599 1177.14C325.209 1182.98 317.482 1185.9 307.42 1185.9C297.357 1185.9 289.631 1182.98 284.24 1177.14C278.849 1171.3 276.154 1162.91 276.154 1151.98C276.154 1141.05 278.849 1132.71 284.24 1126.96C289.661 1121.18 297.417 1118.29 307.509 1118.29C317.602 1118.29 325.313 1121.2 330.644 1127.01C336.005 1132.82 338.685 1141.17 338.685 1152.07ZM290.754 1152.07C290.754 1159.41 292.146 1164.93 294.931 1168.65C297.716 1172.36 301.879 1174.22 307.42 1174.22C318.53 1174.22 324.086 1166.84 324.086 1152.07C324.086 1137.28 318.56 1129.88 307.509 1129.88C301.969 1129.88 297.791 1131.75 294.976 1135.5C292.161 1139.21 290.754 1144.74 290.754 1152.07ZM376.712 1185H362.787V1130.91H344.953V1119.32H394.546V1130.91H376.712V1185ZM403.734 1119.32H424.173C433.487 1119.32 440.24 1120.66 444.433 1123.32C448.656 1125.96 450.767 1130.17 450.767 1135.95C450.767 1139.87 449.839 1143.09 447.982 1145.6C446.155 1148.12 443.714 1149.63 440.66 1150.14V1150.59C444.822 1151.52 447.817 1153.26 449.644 1155.8C451.501 1158.35 452.429 1161.73 452.429 1165.95C452.429 1171.94 450.258 1176.61 445.916 1179.97C441.603 1183.32 435.733 1185 428.306 1185H403.734V1119.32ZM417.66 1145.33H425.746C429.519 1145.33 432.244 1144.75 433.921 1143.58C435.628 1142.41 436.482 1140.48 436.482 1137.79C436.482 1135.27 435.554 1133.47 433.697 1132.4C431.87 1131.29 428.965 1130.73 424.982 1130.73H417.66V1145.33ZM417.66 1156.38V1173.5H426.734C430.567 1173.5 433.397 1172.77 435.224 1171.3C437.051 1169.83 437.964 1167.59 437.964 1164.56C437.964 1159.11 434.071 1156.38 426.285 1156.38H417.66ZM524.238 1152.07C524.238 1162.94 521.542 1171.3 516.152 1177.14C510.761 1182.98 503.035 1185.9 492.972 1185.9C482.91 1185.9 475.183 1182.98 469.792 1177.14C464.402 1171.3 461.706 1162.91 461.706 1151.98C461.706 1141.05 464.402 1132.71 469.792 1126.96C475.213 1121.18 482.97 1118.29 493.062 1118.29C503.154 1118.29 510.866 1121.2 516.197 1127.01C521.557 1132.82 524.238 1141.17 524.238 1152.07ZM476.306 1152.07C476.306 1159.41 477.699 1164.93 480.484 1168.65C483.269 1172.36 487.432 1174.22 492.972 1174.22C504.083 1174.22 509.638 1166.84 509.638 1152.07C509.638 1137.28 504.113 1129.88 493.062 1129.88C487.522 1129.88 483.344 1131.75 480.529 1135.5C477.714 1139.21 476.306 1144.74 476.306 1152.07ZM550.855 1150.23H555.437C559.719 1150.23 562.924 1149.39 565.05 1147.71C567.176 1146.01 568.24 1143.54 568.24 1140.3C568.24 1137.04 567.341 1134.63 565.544 1133.07C563.777 1131.51 560.992 1130.73 557.189 1130.73H550.855V1150.23ZM582.3 1139.81C582.3 1146.88 580.084 1152.28 575.652 1156.03C571.249 1159.77 564.975 1161.64 556.829 1161.64H550.855V1185H536.929V1119.32H557.908C565.874 1119.32 571.923 1121.05 576.056 1124.49C580.219 1127.9 582.3 1133.01 582.3 1139.81ZM593.779 1119.32H606.312V1151.04L606.132 1159.53L605.683 1169.19H605.952L636.275 1119.32H652.941V1185H640.542V1153.46C640.542 1149.24 640.812 1142.98 641.351 1134.69H640.991L610.534 1185H593.779V1119.32ZM693.933 1185H680.007V1130.91H662.173V1119.32H711.767V1130.91H693.933V1185ZM758.778 1185H720.954V1119.32H758.778V1130.73H734.88V1145.15H757.116V1156.56H734.88V1173.5H758.778V1185ZM823.579 1185H809.698V1130.91H793.616L792.898 1136.93C791.041 1152.24 789.394 1162.99 787.956 1169.19C786.549 1175.36 784.482 1179.7 781.757 1182.21C779.032 1184.73 775.348 1185.96 770.706 1185.9C768.19 1185.9 765.974 1185.57 764.058 1184.91V1173.5C765.795 1174.1 767.427 1174.4 768.954 1174.4C770.541 1174.4 771.799 1173.68 772.728 1172.24C773.656 1170.77 774.524 1168.08 775.333 1164.16C776.172 1160.2 777.265 1153.75 778.612 1144.79C779.99 1135.81 781.158 1127.32 782.116 1119.32H823.579V1185ZM885.505 1164.47C885.505 1178.16 876.461 1185 858.372 1185H839.235V1119.32H853.161V1144.53H858.642C867.207 1144.53 873.825 1146.26 878.497 1149.74C883.169 1153.21 885.505 1158.12 885.505 1164.47ZM853.161 1173.59H857.833C862.535 1173.59 865.979 1172.84 868.165 1171.34C870.351 1169.82 871.444 1167.53 871.444 1164.47C871.444 1161.45 870.336 1159.27 868.12 1157.96C865.904 1156.61 862.101 1155.94 856.71 1155.94H853.161V1173.59ZM950.89 1185H937.009V1156.65H910.999V1185H897.073V1119.32H910.999V1145.06H937.009V1119.32H950.89V1185ZM1011.51 1164.47C1011.51 1171.3 1009.24 1176.43 1004.68 1179.88C1000.16 1183.29 993.454 1185 984.559 1185H966.591V1119.32H980.516V1144.53H985.009C993.424 1144.53 999.938 1146.28 1004.55 1149.78C1009.19 1153.26 1011.51 1158.15 1011.51 1164.47ZM980.516 1173.59H984.155C988.737 1173.59 992.091 1172.84 994.218 1171.34C996.344 1169.82 997.407 1167.53 997.407 1164.47C997.407 1161.42 996.374 1159.23 994.307 1157.91C992.271 1156.59 988.677 1155.94 983.526 1155.94H980.516V1173.59ZM1033.39 1185H1019.51V1119.32H1033.39V1185ZM1049.05 1119.32H1061.58V1151.04L1061.4 1159.53L1060.95 1169.19H1061.22L1091.54 1119.32H1108.21V1185H1095.81V1153.46C1095.81 1149.24 1096.08 1142.98 1096.62 1134.69H1096.26L1065.8 1185H1049.05V1119.32ZM1100.39 1097.99C1099.82 1103.59 1097.71 1107.67 1094.06 1110.25C1090.4 1112.8 1085.13 1114.07 1078.24 1114.07C1071.15 1114.07 1065.89 1112.84 1062.48 1110.38C1059.09 1107.93 1057.19 1103.8 1056.77 1097.99H1069.04C1069.25 1101.07 1070.01 1103.24 1071.33 1104.5C1072.67 1105.73 1075.07 1106.34 1078.51 1106.34C1081.54 1106.34 1083.79 1105.67 1085.25 1104.32C1086.75 1102.94 1087.66 1100.83 1087.99 1097.99H1100.39Z" fill="#E64926"/>
<path d="M1211.82 1165.05H1212.45C1217.27 1165.05 1221.04 1163.8 1223.77 1161.28C1226.52 1158.74 1227.9 1155.26 1227.9 1150.86C1227.9 1146.79 1226.63 1143.52 1224.08 1141.07C1221.54 1138.58 1218.06 1137.34 1213.66 1137.34H1211.82V1165.05ZM1199.29 1185.9V1175.79H1198.3C1192.73 1175.79 1187.85 1174.82 1183.65 1172.87C1179.46 1170.89 1176.15 1167.94 1173.73 1164.02C1171.33 1160.1 1170.13 1155.74 1170.13 1150.95C1170.13 1146.31 1171.2 1142.13 1173.32 1138.42C1175.48 1134.67 1178.58 1131.75 1182.62 1129.66C1186.66 1127.53 1191.43 1126.47 1196.91 1126.47H1199.29V1118.38H1211.82V1126.47H1214.2C1219.65 1126.47 1224.4 1127.53 1228.44 1129.66C1232.48 1131.75 1235.58 1134.67 1237.74 1138.42C1239.9 1142.13 1240.97 1146.31 1240.97 1150.95C1240.97 1155.74 1239.76 1160.1 1237.34 1164.02C1234.94 1167.94 1231.65 1170.89 1227.45 1172.87C1223.26 1174.82 1218.38 1175.79 1212.81 1175.79H1211.82V1185.9H1199.29ZM1199.29 1137.34H1197.45C1193.04 1137.34 1189.57 1138.57 1187.02 1141.02C1184.48 1143.48 1183.21 1146.76 1183.21 1150.86C1183.21 1155.17 1184.55 1158.62 1187.25 1161.19C1189.94 1163.77 1193.75 1165.05 1198.66 1165.05H1199.29V1137.34ZM1312.11 1152.07C1312.11 1162.94 1309.41 1171.3 1304.02 1177.14C1298.63 1182.98 1290.91 1185.9 1280.84 1185.9C1270.78 1185.9 1263.05 1182.98 1257.66 1177.14C1252.27 1171.3 1249.58 1162.91 1249.58 1151.98C1249.58 1141.05 1252.27 1132.71 1257.66 1126.96C1263.08 1121.18 1270.84 1118.29 1280.93 1118.29C1291.03 1118.29 1298.74 1121.2 1304.07 1127.01C1309.43 1132.82 1312.11 1141.17 1312.11 1152.07ZM1264.18 1152.07C1264.18 1159.41 1265.57 1164.93 1268.36 1168.65C1271.14 1172.36 1275.3 1174.22 1280.84 1174.22C1291.95 1174.22 1297.51 1166.84 1297.51 1152.07C1297.51 1137.28 1291.98 1129.88 1280.93 1129.88C1275.39 1129.88 1271.22 1131.75 1268.4 1135.5C1265.59 1139.21 1264.18 1144.74 1264.18 1152.07ZM1378.62 1185H1364.74V1156.65H1338.73V1185H1324.8V1119.32H1338.73V1145.06H1364.74V1119.32H1378.62V1185ZM1386.5 1173.41H1391.58C1395.92 1164.73 1399.35 1156.06 1401.87 1147.4C1404.38 1138.72 1406.25 1129.36 1407.48 1119.32H1445.75V1173.41H1454.51V1204.14H1441.08V1185H1399.93V1204.14H1386.5V1173.41ZM1418.53 1130.91C1417.57 1137.77 1415.97 1145.03 1413.72 1152.7C1411.51 1160.37 1409.01 1167.27 1406.22 1173.41H1431.87V1130.91H1418.53Z" fill="#E64926"/>
<g clip-path="url(#clip0)">
<path d="M1321.49 545.59C1333.91 531.338 1378.08 465.212 1383.96 465.345C1387.27 465.345 1333.2 547.493 1338.77 641.901C1340.14 666.687 1344.2 706.699 1344.2 706.699C1344.2 706.699 1327.37 682.488 1311.51 671.29C1286.51 653.586 1246.66 655.356 1220.51 671.865C1201.61 683.86 1182.21 709 1182.21 709C1182.21 709 1189.59 653.63 1191.14 639.599C1199.88 553.335 1137.64 470.966 1141 466.983C1141.93 465.92 1182.48 514.386 1208.63 543.598C1219.85 555.283 1247.72 570.951 1266.06 570.641C1282.75 570.42 1310.8 558.115 1321.49 545.59Z" fill="#E60004"/>
<path d="M1265.44 558.16C1299.1 558.16 1326.4 530.813 1326.4 497.08C1326.4 463.346 1299.1 436 1265.44 436C1231.77 436 1204.48 463.346 1204.48 497.08C1204.48 530.813 1231.77 558.16 1265.44 558.16Z" fill="#E60004"/>
</g>
<path d="M903.588 192.552C1012.44 225.831 1107.96 292.717 1176.46 383.622C1186.25 396.119 1191.23 403.081 1192.5 405H1140C1076.98 321.367 991.125 264.405 890.981 233.788C790.837 203.171 683.571 205.043 584.557 239.136C485.543 273.23 399.863 337.794 339.799 423.575C279.734 509.356 248.293 604.296 250.12 709H207C205.013 595.192 239.189 492.083 304.477 398.842C369.765 305.602 462.894 235.423 570.519 198.365C678.143 161.308 794.736 159.272 903.588 192.552Z" fill="url(#paint0_linear)"/>
<path d="M951.679 30.9226C1094.59 74.6172 1220.56 159.645 1310.5 279C1323.34 295.409 1349.5 326.5 1387 404.5H1340C1240 206.5 1073.98 111.699 942.5 71.5C811.018 31.301 662.499 32.2367 532.5 77C402.501 121.763 279.861 212.372 201 325C122.139 437.628 77.1005 571.528 79.5 709H37.1076C34.4994 559.574 79.3699 424.196 165.088 301.774C250.806 179.353 373.079 87.2116 514.382 38.5558C655.685 -10.1 808.764 -12.772 951.679 30.9226Z" fill="url(#paint1_linear)"/>
<path d="M928.529 111.259C1054.55 149.777 1165.13 227.19 1244.44 332.405C1272.02 369 1288 396.5 1292.5 405H1244.44C1154.5 259 1031.94 187.436 916 152C800.064 116.564 673.628 118.54 559 158C444.372 197.46 340.036 275.216 270.5 374.5C200.964 473.784 162.884 587.815 165 709H122.095C119.795 577.277 159.36 457.938 234.943 350.021C310.526 242.104 418.342 160.879 542.937 117.988C667.533 75.0966 802.512 72.7412 928.529 111.259Z" fill="url(#paint2_linear)"/>
<defs>
<linearGradient id="paint0_linear" x1="207" y1="709" x2="1193" y2="709" gradientUnits="userSpaceOnUse">
<stop stop-color="#E63522"/>
<stop offset="0.363948" stop-color="#F18A2A"/>
<stop offset="1" stop-color="#FAC57F"/>
</linearGradient>
<linearGradient id="paint1_linear" x1="37.1123" y1="709" x2="1387.68" y2="709" gradientUnits="userSpaceOnUse">
<stop stop-color="#E63522"/>
<stop offset="0.363948" stop-color="#F18A2A"/>
<stop offset="1" stop-color="#FAC57F"/>
</linearGradient>
<linearGradient id="paint2_linear" x1="122.097" y1="709" x2="1293.09" y2="709" gradientUnits="userSpaceOnUse">
<stop stop-color="#E63522"/>
<stop offset="0.363948" stop-color="#F18A2A"/>
<stop offset="1" stop-color="#FAC57F"/>
</linearGradient>
<clipPath id="clip0">
<rect width="243" height="273" fill="white" transform="translate(1141 436)"/>
</clipPath>
</defs>
</svg>
